<?xml version="1.0" encoding="utf-8"?>
<!-- Generator: Adobe Illustrator 16.0.0, SVG Export Plug-In . SVG Version: 6.00 Build 0)  -->
<!DOCTYPE svg PUBLIC "-//W3C//DTD SVG 1.1//EN" "http://www.w3.org/Graphics/SVG/1.1/DTD/svg11.dtd">
<svg version="1.1" id="Layer_1" xmlns="http://www.w3.org/2000/svg" xmlns:xlink="http://www.w3.org/1999/xlink" x="0px" y="0px"
	 width="240.667px" height="67.333px" viewBox="0 0 240.667 67.333" enable-background="new 0 0 240.667 67.333"
	 xml:space="preserve">
<g id="Layer_1_1_">
	
		<ellipse fill="#F7931E" stroke="#603813" stroke-width="0.8" stroke-miterlimit="10" cx="28.215" cy="30.933" rx="25" ry="24.059"/>
	<g>
		<path fill="#FFFFFF" d="M40.983,32.354c0,1.673-0.315,3.236-0.947,4.688c-0.634,1.447-1.509,2.703-2.627,3.766
			c-1.118,1.062-2.426,1.91-3.922,2.542c-1.498,0.634-3.111,0.95-4.84,0.95c-2.615-0.041-4.894-0.704-6.833-1.989
			c-1.938-1.286-3.268-2.851-3.984-4.687c0,0.57,0.009,1.113,0.03,1.621c0.023,0.514,0.032,1.032,0.032,1.562v3.062h-1.644V3.946
			l1.771-0.681v20.758c-0.042,0.532-0.072,1.04-0.096,1.532c-0.021,0.489-0.032,0.999-0.032,1.529
			c0.338-0.897,0.855-1.755,1.55-2.572c0.698-0.816,1.509-1.532,2.436-2.145c0.929-0.612,1.972-1.089,3.131-1.439
			c1.162-0.346,2.373-0.521,3.639-0.521c1.729,0,3.342,0.316,4.84,0.951c1.496,0.632,2.804,1.479,3.922,2.541
			c1.118,1.063,1.993,2.329,2.627,3.797C40.668,29.167,40.983,30.72,40.983,32.354z M39.214,32.354c0-1.43-0.277-2.766-0.823-4.014
			c-0.552-1.243-1.298-2.336-2.249-3.276c-0.947-0.939-2.065-1.675-3.351-2.203c-1.286-0.531-2.668-0.797-4.145-0.797
			c-1.475,0-2.869,0.266-4.174,0.797c-1.31,0.528-2.437,1.264-3.387,2.203c-0.947,0.94-1.698,2.033-2.245,3.276
			c-0.547,1.248-0.823,2.583-0.823,4.014s0.275,2.768,0.823,4.014c0.546,1.244,1.298,2.325,2.245,3.245
			c0.95,0.917,2.077,1.646,3.387,2.175c1.306,0.529,2.699,0.795,4.174,0.795c1.477,0,2.859-0.266,4.145-0.795
			s2.404-1.258,3.351-2.175c0.951-0.92,1.697-2.001,2.249-3.245C38.938,35.12,39.214,33.784,39.214,32.354z"/>
	</g>
</g>
<g id="Layer_2">
	<g enable-background="new    ">
		<path fill="#603813" d="M82.881,38.522c0,1.422-0.269,2.748-0.806,3.979c-0.538,1.23-1.266,2.297-2.184,3.197
			c-0.919,0.902-2.002,1.621-3.25,2.158c-1.248,0.537-2.583,0.807-4.004,0.807c-1.075,0-2.072-0.141-2.99-0.416
			c-0.919-0.277-1.734-0.65-2.444-1.119c-0.711-0.467-1.318-0.996-1.82-1.586c-0.503-0.588-0.858-1.178-1.066-1.768
			c0,0.381,0.008,0.746,0.026,1.092c0.017,0.348,0.026,0.711,0.026,1.092v2.34h-1.976v-39h2.184v21.684
			c-0.07,0.382-0.113,0.772-0.13,1.17c-0.018,0.399-0.044,0.789-0.078,1.171c0.208-0.59,0.572-1.179,1.092-1.769
			c0.52-0.589,1.144-1.118,1.872-1.586s1.542-0.849,2.444-1.144c0.901-0.295,1.854-0.442,2.86-0.442
			c1.421,0,2.756,0.269,4.004,0.806c1.248,0.538,2.331,1.267,3.25,2.185c0.918,0.919,1.646,1.994,2.184,3.224
			C82.612,35.827,82.881,37.135,82.881,38.522z M80.697,38.522c0-1.109-0.208-2.158-0.624-3.146s-0.979-1.845-1.69-2.574
			c-0.711-0.728-1.56-1.3-2.548-1.716c-0.988-0.416-2.054-0.624-3.198-0.624s-2.21,0.208-3.198,0.624
			c-0.988,0.416-1.838,0.988-2.548,1.716c-0.711,0.729-1.274,1.585-1.69,2.574s-0.624,2.037-0.624,3.146s0.208,2.15,0.624,3.119
			c0.416,0.971,0.979,1.82,1.69,2.549c0.71,0.729,1.56,1.301,2.548,1.717c0.988,0.416,2.054,0.623,3.198,0.623
			s2.21-0.207,3.198-0.623c0.988-0.416,1.837-0.988,2.548-1.717c0.71-0.729,1.274-1.578,1.69-2.549
			C80.489,40.672,80.697,39.631,80.697,38.522z"/>
		<path fill="#603813" d="M91.669,48.297h-2.132v-39h2.132V48.297z"/>
		<path fill="#603813" d="M116.368,35.663c-2.704,1.074-5.391,2.141-8.06,3.197c-2.67,1.059-5.356,2.123-8.06,3.197
			c0.589,1.318,1.525,2.393,2.808,3.225c1.282,0.832,2.738,1.248,4.368,1.248c1.074,0,2.08-0.189,3.016-0.572
			c0.936-0.381,1.75-0.918,2.444-1.611c0.242,0.277,0.468,0.545,0.676,0.805c0.208,0.262,0.433,0.529,0.676,0.807
			c-0.902,0.832-1.924,1.492-3.068,1.977s-2.392,0.729-3.744,0.729c-1.422,0-2.748-0.27-3.978-0.807
			c-1.231-0.537-2.306-1.256-3.224-2.158c-0.919-0.9-1.647-1.967-2.184-3.197c-0.538-1.23-0.806-2.557-0.806-3.979
			c0-1.387,0.268-2.705,0.806-3.951c0.537-1.249,1.265-2.323,2.184-3.225c0.918-0.901,1.993-1.62,3.224-2.158
			c1.23-0.537,2.556-0.806,3.978-0.806c1.04,0,2.028,0.182,2.964,0.546s1.794,0.867,2.574,1.508c0.78,0.643,1.464,1.404,2.054,2.288
			C115.605,33.607,116.056,34.588,116.368,35.663z M107.424,30.462c-1.04,0-2.028,0.182-2.964,0.546s-1.751,0.876-2.444,1.534
			c-0.694,0.659-1.257,1.422-1.69,2.289c-0.434,0.867-0.702,1.803-0.806,2.807c-0.035,0.416-0.044,0.824-0.026,1.223
			c0.017,0.398,0.061,0.789,0.13,1.17c2.322-0.936,4.645-1.863,6.968-2.781c2.322-0.918,4.662-1.848,7.02-2.783
			c-0.59-1.177-1.439-2.139-2.548-2.885C109.955,30.835,108.741,30.462,107.424,30.462z"/>
		<path fill="#603813" d="M124.167,28.798h1.977v1.82c0,0.59,0,1.127,0,1.611c0,0.486,0.016,1.023,0.051,1.612
			c0.693-1.629,1.803-2.946,3.328-3.952c1.525-1.005,3.258-1.508,5.201-1.508c1.906,0,3.414,0.538,4.523,1.612
			s1.697,2.479,1.768,4.211v14.092h-2.184v-13.52c-0.07-1.109-0.477-2.08-1.223-2.912s-1.846-1.282-3.301-1.353
			c-1.041,0-2.047,0.183-3.016,0.546c-0.973,0.364-1.82,0.858-2.549,1.482s-1.309,1.37-1.742,2.236
			c-0.434,0.867-0.65,1.82-0.65,2.859v10.66h-2.184V28.798z"/>
		<path fill="#603813" d="M147.308,38.522c0-1.387,0.26-2.695,0.779-3.926c0.52-1.23,1.24-2.305,2.158-3.224
			c0.918-0.918,2.002-1.646,3.25-2.185c1.248-0.537,2.582-0.806,4.004-0.806c1.041,0,2.01,0.147,2.912,0.442
			c0.9,0.295,1.717,0.676,2.443,1.144c0.729,0.468,1.354,0.997,1.873,1.586c0.52,0.59,0.883,1.179,1.092,1.769
			c-0.035-0.382-0.07-0.771-0.104-1.171c-0.035-0.397-0.07-0.788-0.105-1.17V9.298h2.133v39h-1.924v-2.34v-2.184
			c-0.209,0.59-0.564,1.18-1.066,1.768c-0.502,0.59-1.109,1.119-1.82,1.586c-0.711,0.469-1.525,0.842-2.443,1.119
			c-0.918,0.275-1.916,0.416-2.99,0.416c-1.422,0-2.756-0.27-4.004-0.807s-2.332-1.256-3.25-2.158
			c-0.918-0.9-1.639-1.967-2.158-3.197S147.308,39.944,147.308,38.522z M149.492,38.522c0,1.109,0.209,2.15,0.625,3.119
			c0.416,0.971,0.979,1.82,1.689,2.549c0.709,0.729,1.551,1.301,2.521,1.717s2.027,0.623,3.172,0.623s2.211-0.207,3.199-0.623
			c0.986-0.416,1.846-0.988,2.572-1.717c0.729-0.729,1.301-1.578,1.717-2.549c0.416-0.969,0.623-2.01,0.623-3.119
			s-0.207-2.158-0.623-3.146s-0.988-1.845-1.717-2.574c-0.727-0.728-1.586-1.3-2.572-1.716c-0.988-0.416-2.055-0.624-3.199-0.624
			s-2.201,0.208-3.172,0.624s-1.812,0.988-2.521,1.716c-0.711,0.729-1.273,1.585-1.689,2.574S149.492,37.413,149.492,38.522z"/>
	</g>
	<g enable-background="new    ">
	</g>
	<g enable-background="new    ">
		<path fill="#F7931E" d="M180.402,28.798h1.977v1.82c0,0.59,0,1.127,0,1.611c0,0.486,0.017,1.023,0.051,1.612
			c0.693-1.664,1.795-2.981,3.303-3.952c1.508-0.97,3.25-1.473,5.227-1.508c1.768,0,3.205,0.477,4.315,1.43
			c1.108,0.954,1.75,2.21,1.924,3.771c0.728-1.561,1.837-2.809,3.328-3.744c1.49-0.937,3.188-1.421,5.097-1.456
			c1.905,0,3.414,0.538,4.523,1.612s1.698,2.479,1.768,4.211v14.092h-2.132v-13.52c-0.069-1.109-0.477-2.08-1.222-2.912
			c-0.746-0.832-1.846-1.282-3.303-1.353c-1.039,0-2.045,0.174-3.016,0.521s-1.82,0.832-2.548,1.456s-1.31,1.36-1.742,2.209
			c-0.434,0.85-0.667,1.777-0.702,2.781v10.816h-2.184v-13.52c-0.07-1.109-0.477-2.08-1.223-2.912
			c-0.745-0.832-1.846-1.282-3.301-1.353c-1.041,0-2.047,0.183-3.017,0.546c-0.971,0.364-1.819,0.858-2.548,1.482
			s-1.309,1.37-1.742,2.236c-0.434,0.867-0.65,1.82-0.65,2.859v10.66h-2.184V28.798z"/>
		<path fill="#F7931E" d="M237.445,35.663c-2.703,1.074-5.391,2.141-8.059,3.197c-2.67,1.059-5.357,2.123-8.061,3.197
			c0.589,1.318,1.525,2.393,2.808,3.225s2.738,1.248,4.368,1.248c1.074,0,2.08-0.189,3.016-0.572
			c0.937-0.381,1.75-0.918,2.444-1.611c0.242,0.277,0.468,0.545,0.677,0.805c0.207,0.262,0.433,0.529,0.676,0.807
			c-0.902,0.832-1.924,1.492-3.068,1.977s-2.393,0.729-3.744,0.729c-1.422,0-2.748-0.27-3.979-0.807s-2.305-1.256-3.224-2.158
			c-0.919-0.9-1.647-1.967-2.184-3.197c-0.538-1.23-0.806-2.557-0.806-3.979c0-1.387,0.268-2.705,0.806-3.951
			c0.536-1.249,1.265-2.323,2.184-3.225c0.919-0.901,1.993-1.62,3.224-2.158c1.23-0.537,2.557-0.806,3.979-0.806
			c1.04,0,2.027,0.182,2.964,0.546s1.794,0.867,2.574,1.508c0.78,0.643,1.464,1.404,2.054,2.288S237.133,34.588,237.445,35.663z
			 M228.501,30.462c-1.04,0-2.027,0.182-2.964,0.546s-1.751,0.876-2.444,1.534c-0.693,0.659-1.257,1.422-1.689,2.289
			c-0.434,0.867-0.702,1.803-0.807,2.807c-0.035,0.416-0.043,0.824-0.025,1.223c0.017,0.398,0.061,0.789,0.13,1.17
			c2.321-0.936,4.646-1.863,6.968-2.781s4.662-1.848,7.02-2.783c-0.59-1.177-1.438-2.139-2.547-2.885
			C231.032,30.835,229.818,30.462,228.501,30.462z"/>
	</g>
	<g enable-background="new    ">
		<path d="M208.205,51.672c0-0.176,0.072-0.328,0.221-0.455c0.146-0.129,0.32-0.193,0.522-0.193c0.184,0,0.349,0.064,0.495,0.193
			c0.147,0.127,0.221,0.279,0.221,0.455s-0.073,0.324-0.221,0.444c-0.146,0.12-0.312,0.18-0.495,0.18
			c-0.202,0-0.376-0.06-0.522-0.18C208.277,51.997,208.205,51.848,208.205,51.672z M209.306,63.768h-0.771v-9h0.771V63.768z"/>
		<path d="M214.4,54.768h0.716v1.057c-0.019,0.225-0.027,0.439-0.027,0.648c0,0.207,0,0.424,0,0.647
			c0.367-0.769,0.954-1.38,1.763-1.836c0.807-0.456,1.725-0.685,2.753-0.685c0.991,0,1.776,0.248,2.354,0.744
			s0.885,1.145,0.922,1.944v6.479h-0.771v-6.432c-0.037-0.56-0.267-1.039-0.688-1.439s-1.028-0.616-1.817-0.648
			c-0.587,0-1.151,0.084-1.693,0.252s-1.015,0.404-1.418,0.708s-0.726,0.669-0.964,1.093s-0.357,0.883-0.357,1.379v5.088H214.4
			V54.768z"/>
		<path d="M234.28,62.401c0.073,0.08,0.151,0.164,0.233,0.252c0.084,0.088,0.17,0.172,0.262,0.252
			c-0.477,0.32-1.004,0.572-1.582,0.756c-0.579,0.184-1.189,0.275-1.832,0.275c-0.752,0-1.455-0.123-2.105-0.371
			c-0.652-0.248-1.217-0.58-1.694-0.996s-0.858-0.908-1.143-1.477c-0.284-0.567-0.427-1.18-0.427-1.836
			c0-0.64,0.143-1.248,0.427-1.824s0.665-1.071,1.143-1.488c0.478-0.415,1.042-0.747,1.694-0.995
			c0.65-0.248,1.354-0.372,2.105-0.372c0.661,0,1.281,0.092,1.859,0.275c0.578,0.185,1.096,0.437,1.555,0.756
			c-0.092,0.081-0.178,0.165-0.262,0.252c-0.082,0.089-0.16,0.173-0.233,0.253c-0.403-0.272-0.854-0.488-1.349-0.648
			c-0.496-0.159-1.02-0.239-1.57-0.239c-0.643,0-1.244,0.104-1.803,0.312c-0.561,0.208-1.047,0.496-1.46,0.864
			s-0.739,0.796-0.978,1.283c-0.238,0.488-0.357,1.013-0.357,1.572c0,0.561,0.119,1.084,0.357,1.572s0.564,0.912,0.978,1.271
			c0.413,0.36,0.899,0.645,1.46,0.853c0.559,0.208,1.16,0.312,1.803,0.312c0.568,0,1.098-0.075,1.584-0.228
			C233.431,62.885,233.876,62.672,234.28,62.401z"/>
	</g>
</g>
</svg>
