<?xml version="1.0" encoding="utf-8"?>
<!-- Generator: Adobe Illustrator 16.0.4, SVG Export Plug-In . SVG Version: 6.00 Build 0)  -->
<!DOCTYPE svg PUBLIC "-//W3C//DTD SVG 1.1//EN" "http://www.w3.org/Graphics/SVG/1.1/DTD/svg11.dtd">
<svg version="1.1" id="Layer_1" xmlns="http://www.w3.org/2000/svg" xmlns:xlink="http://www.w3.org/1999/xlink" x="0px" y="0px"
	 width="200px" height="56.224px" viewBox="-41.75 -11.736 200 56.224" enable-background="new -41.75 -11.736 200 56.224"
	 xml:space="preserve">
<g id="Layer_1_1_">
	<path fill="#F7931E" stroke="#603813" stroke-width="0.666" stroke-miterlimit="10" d="M-18.429-7.378
		c11.479,0,20.8,8.965,20.8,20.024c0,11.079-9.321,20.044-20.8,20.044c-11.5,0-20.821-8.965-20.821-20.044
		C-39.25,1.587-29.928-7.378-18.429-7.378z"/>
	<g>
		<path fill="#FFFFFF" d="M-8.594,9.955c-0.538-1.224-1.255-2.275-2.19-3.177c-0.934-0.879-2.013-1.576-3.26-2.113
			c-1.246-0.519-2.605-0.784-4.042-0.784c-1.053,0-2.049,0.137-3.013,0.425c-0.984,0.289-1.848,0.702-2.62,1.205
			c-0.77,0.503-1.441,1.115-2.021,1.791c-0.578,0.677-1.016,1.381-1.3,2.132c0-0.43,0.005-0.866,0.042-1.265
			c0.016-0.404,0.035-0.839,0.062-1.266V-5.993c-0.39,0.399-0.876,0.733-1.464,0.927v28.479h1.36v-2.535
			c0-0.471-0.005-0.891-0.022-1.309c-0.012-0.413-0.02-0.891-0.02-1.346c0.591,1.528,1.707,2.839,3.322,3.885
			c1.615,1.084,3.516,1.638,5.674,1.664c1.436,0,2.797-0.244,4.042-0.783c1.245-0.534,2.324-1.251,3.261-2.111
			c0.932-0.898,1.65-1.965,2.189-3.156c0.514-1.193,0.781-2.504,0.781-3.904C-7.812,12.466-8.081,11.164-8.594,9.955z M-9.958,17.16
			c-0.46,1.059-1.093,1.931-1.878,2.694c-0.784,0.763-1.721,1.403-2.785,1.829c-1.086,0.429-2.237,0.645-3.467,0.645
			s-2.387-0.216-3.464-0.645c-1.103-0.426-2.022-1.065-2.831-1.829c-0.779-0.764-1.415-1.638-1.854-2.694
			c-0.462-1.021-0.701-2.14-0.701-3.34c0-1.181,0.241-2.3,0.701-3.341c0.438-1.039,1.074-1.936,1.854-2.715
			c0.809-0.796,1.729-1.401,2.831-1.848c1.077-0.428,2.233-0.665,3.464-0.665c1.229,0,2.38,0.237,3.467,0.665
			c1.064,0.446,2.001,1.052,2.785,1.848c0.785,0.779,1.417,1.676,1.878,2.715c0.439,1.041,0.682,2.161,0.682,3.341
			C-9.276,15.021-9.517,16.116-9.958,17.16z"/>
	</g>
</g>
<g id="Layer_2">
	<g enable-background="new    ">
		<path fill="#603813" d="M27.08,18.979c0,1.175-0.236,2.284-0.669,3.293c-0.454,1.01-1.074,1.91-1.837,2.663
			c-0.763,0.754-1.655,1.345-2.696,1.78c-1.041,0.474-2.159,0.69-3.333,0.69c-0.887,0-1.723-0.132-2.487-0.353
			c-0.765-0.222-1.441-0.547-2.048-0.936c-0.588-0.391-1.085-0.813-1.494-1.326c-0.43-0.465-0.724-0.971-0.903-1.441
			c0,0.291,0.005,0.609,0.019,0.878c0.03,0.309,0.037,0.585,0.037,0.917v1.94h-1.661V-5.363h1.84v18.04
			c-0.067,0.332-0.096,0.647-0.127,0.99c-0.011,0.321-0.029,0.638-0.052,0.97c0.179-0.487,0.478-0.992,0.897-1.483
			c0.443-0.489,0.953-0.917,1.571-1.323c0.6-0.389,1.275-0.7,2.025-0.954c0.757-0.233,1.542-0.349,2.382-0.349
			c1.175,0,2.295,0.218,3.333,0.67c1.041,0.435,1.933,1.055,2.696,1.816c0.763,0.764,1.383,1.652,1.837,2.682
			C26.844,16.723,27.08,17.825,27.08,18.979z M25.243,18.979c0-0.934-0.155-1.822-0.509-2.632c-0.353-0.83-0.822-1.536-1.409-2.153
			c-0.59-0.599-1.287-1.075-2.115-1.428c-0.834-0.335-1.71-0.51-2.666-0.51c-0.951,0-1.834,0.175-2.663,0.51
			c-0.83,0.353-1.53,0.83-2.117,1.428c-0.588,0.62-1.057,1.325-1.41,2.153c-0.354,0.811-0.51,1.698-0.51,2.632
			c0,0.887,0.156,1.773,0.51,2.568c0.353,0.838,0.822,1.518,1.41,2.116c0.587,0.641,1.287,1.093,2.117,1.451
			c0.829,0.352,1.711,0.53,2.663,0.53c0.955,0,1.832-0.179,2.666-0.53c0.828-0.358,1.525-0.812,2.115-1.451
			c0.584-0.6,1.057-1.279,1.409-2.116C25.088,20.753,25.243,19.866,25.243,18.979z"/>
		<path fill="#603813" d="M34.38,27.086h-1.762V-5.363h1.762V27.086z"/>
		<path fill="#603813" d="M54.943,16.576c-2.237,0.907-4.486,1.767-6.701,2.663c-2.216,0.898-4.461,1.757-6.722,2.665
			c0.508,1.105,1.282,2.012,2.347,2.679c1.061,0.706,2.279,1.063,3.632,1.063c0.908,0,1.728-0.166,2.502-0.497
			c0.797-0.332,1.473-0.767,2.049-1.339c0.2,0.222,0.388,0.437,0.563,0.688c0.179,0.216,0.365,0.43,0.565,0.652
			c-0.753,0.708-1.604,1.261-2.558,1.661c-0.95,0.396-1.993,0.602-3.122,0.602c-1.177,0-2.29-0.221-3.316-0.695
			c-1.012-0.43-1.918-1.025-2.68-1.778c-0.766-0.751-1.364-1.652-1.818-2.661s-0.669-2.121-0.669-3.296
			c0-1.152,0.215-2.26,0.669-3.3c0.452-1.043,1.053-1.947,1.818-2.682c0.762-0.752,1.668-1.366,2.68-1.799
			c1.026-0.454,2.139-0.669,3.316-0.669c0.864,0,1.693,0.139,2.469,0.438c0.774,0.319,1.501,0.73,2.155,1.271
			c0.633,0.524,1.204,1.163,1.709,1.905C54.323,14.864,54.699,15.688,54.943,16.576z M47.502,12.256
			c-0.864,0-1.694,0.14-2.469,0.459c-0.776,0.299-1.451,0.718-2.026,1.269c-0.578,0.553-1.048,1.176-1.411,1.906
			c-0.365,0.731-0.583,1.485-0.671,2.345c-0.021,0.355-0.029,0.661-0.016,1.005c0.012,0.343,0.037,0.68,0.104,0.968
			c1.927-0.774,3.876-1.541,5.803-2.309c1.926-0.763,3.886-1.535,5.836-2.311c-0.486-0.995-1.185-1.786-2.114-2.398
			C49.607,12.562,48.607,12.256,47.502,12.256z"/>
		<path fill="#603813" d="M61.456,10.86h1.62v1.517c0,0.49,0,0.942,0,1.34s0.009,0.853,0.071,1.338
			c0.574-1.35,1.503-2.435,2.745-3.276c1.284-0.842,2.703-1.253,4.341-1.253c1.576,0,2.847,0.433,3.777,1.341
			c0.93,0.887,1.396,2.049,1.445,3.51v11.707h-1.802V15.854c-0.043-0.93-0.393-1.75-1.002-2.438
			c-0.651-0.687-1.574-1.062-2.772-1.129c-0.844,0-1.707,0.162-2.504,0.461c-0.798,0.299-1.517,0.702-2.116,1.233
			c-0.599,0.511-1.099,1.141-1.465,1.873c-0.366,0.709-0.548,1.497-0.548,2.379v8.851h-1.793L61.456,10.86L61.456,10.86z"/>
		<path fill="#603813" d="M80.712,18.979c0-1.154,0.213-2.257,0.633-3.283c0.463-1.031,1.058-1.918,1.821-2.683
			c0.762-0.762,1.679-1.382,2.696-1.818c1.021-0.452,2.138-0.67,3.354-0.67c0.844,0,1.643,0.117,2.396,0.35
			c0.75,0.254,1.448,0.564,2.045,0.953c0.601,0.407,1.132,0.835,1.552,1.324s0.74,0.995,0.917,1.483
			c-0.024-0.332-0.043-0.646-0.109-0.971c-0.022-0.34-0.043-0.658-0.069-0.987v-18.04h1.766v32.449h-1.589v-1.94v-1.795
			c-0.177,0.467-0.488,0.974-0.9,1.44c-0.41,0.511-0.928,0.936-1.52,1.325c-0.587,0.39-1.238,0.716-2.005,0.935
			c-0.763,0.224-1.619,0.353-2.524,0.353c-1.178,0-2.294-0.217-3.313-0.688c-1.021-0.435-1.935-1.025-2.696-1.781
			c-0.766-0.751-1.358-1.653-1.821-2.662C80.925,21.266,80.712,20.152,80.712,18.979z M82.509,18.979
			c0,0.887,0.178,1.773,0.533,2.568c0.353,0.838,0.845,1.518,1.43,2.116c0.585,0.641,1.258,1.093,2.097,1.451
			c0.799,0.352,1.695,0.53,2.647,0.53c0.955,0,1.811-0.179,2.665-0.53c0.807-0.358,1.535-0.812,2.126-1.451
			c0.603-0.6,1.058-1.279,1.413-2.116c0.353-0.795,0.528-1.682,0.528-2.568c0-0.934-0.176-1.822-0.528-2.632
			c-0.355-0.83-0.812-1.536-1.413-2.153c-0.597-0.599-1.32-1.075-2.126-1.428c-0.854-0.335-1.755-0.51-2.665-0.51
			c-0.954,0-1.849,0.175-2.647,0.51c-0.839,0.353-1.512,0.83-2.097,1.428c-0.585,0.62-1.077,1.325-1.43,2.153
			C82.686,17.16,82.509,18.046,82.509,18.979z"/>
	</g>
	<g enable-background="new    ">
		<path fill="#F7931E" d="M108.277,10.86h1.622v1.517c0,0.49,0,0.942,0,1.34s0.011,0.853,0.031,1.338
			c0.618-1.371,1.502-2.478,2.771-3.276c1.274-0.82,2.695-1.232,4.357-1.253c1.481,0,2.669,0.394,3.6,1.181
			c0.885,0.787,1.431,1.832,1.586,3.136c0.599-1.304,1.525-2.344,2.787-3.12c1.22-0.777,2.655-1.174,4.232-1.2
			c1.571,0,2.845,0.436,3.773,1.343c0.932,0.885,1.397,2.047,1.444,3.489v11.729h-1.764V15.83c-0.044-0.909-0.392-1.729-1.003-2.414
			c-0.651-0.688-1.535-1.064-2.772-1.131c-0.844,0-1.705,0.154-2.505,0.443c-0.796,0.287-1.516,0.688-2.115,1.199
			c-0.598,0.529-1.101,1.133-1.466,1.85c-0.367,0.699-0.561,1.489-0.584,2.312v8.991h-1.791V15.83
			c-0.087-0.906-0.395-1.729-1.044-2.417c-0.613-0.686-1.537-1.062-2.733-1.128c-0.885,0-1.706,0.161-2.506,0.462
			c-0.795,0.299-1.516,0.7-2.115,1.231c-0.641,0.512-1.1,1.143-1.467,1.852c-0.365,0.729-0.546,1.518-0.546,2.398v8.852h-1.797
			L108.277,10.86L108.277,10.86z"/>
		<path fill="#F7931E" d="M155.75,16.576c-2.256,0.907-4.505,1.767-6.697,2.663c-2.238,0.898-4.485,1.757-6.701,2.665
			c0.464,1.105,1.241,2.012,2.324,2.679c1.043,0.706,2.278,1.063,3.632,1.063c0.906,0,1.729-0.166,2.505-0.497
			c0.772-0.332,1.471-0.767,2.045-1.339c0.199,0.222,0.39,0.437,0.568,0.688c0.176,0.216,0.362,0.43,0.564,0.652
			c-0.756,0.708-1.628,1.261-2.58,1.661c-0.952,0.396-1.97,0.602-3.103,0.602c-1.176,0-2.285-0.221-3.296-0.695
			c-1.049-0.43-1.955-1.025-2.722-1.778c-0.761-0.751-1.362-1.652-1.797-2.661c-0.474-1.009-0.688-2.121-0.688-3.296
			c0-1.152,0.215-2.26,0.688-3.3c0.435-1.043,1.035-1.947,1.797-2.682c0.765-0.752,1.673-1.366,2.722-1.799
			c1.011-0.454,2.12-0.669,3.296-0.669c0.846,0,1.693,0.139,2.472,0.438c0.774,0.319,1.498,0.73,2.133,1.271
			c0.673,0.524,1.24,1.163,1.709,1.905C155.133,14.864,155.506,15.688,155.75,16.576z M148.31,12.256
			c-0.883,0-1.692,0.14-2.47,0.459c-0.777,0.299-1.47,0.718-2.047,1.269c-0.578,0.553-1.028,1.176-1.391,1.906
			c-0.364,0.731-0.579,1.485-0.688,2.345c-0.025,0.355-0.031,0.661-0.02,1.005c0.011,0.343,0.08,0.68,0.125,0.968
			c1.926-0.774,3.855-1.541,5.78-2.309c1.928-0.763,3.908-1.535,5.857-2.311c-0.508-0.995-1.184-1.786-2.112-2.398
			C150.413,12.562,149.414,12.256,148.31,12.256z"/>
	</g>
	<g enable-background="new    ">
		<path d="M131.404,29.904c0-0.155,0.045-0.255,0.184-0.378c0.136-0.087,0.289-0.169,0.422-0.169c0.164,0,0.312,0.082,0.447,0.169
			c0.094,0.123,0.183,0.223,0.183,0.378s-0.086,0.291-0.183,0.373c-0.136,0.116-0.287,0.158-0.447,0.158
			c-0.133,0-0.286-0.042-0.422-0.158C131.449,30.198,131.404,30.06,131.404,29.904z M132.327,39.98h-0.628v-7.479h0.628V39.98z"/>
		<path d="M136.56,32.501h0.59v0.854c-0.016,0.189-0.019,0.37-0.019,0.549c0,0.175,0,0.357,0,0.544
			c0.322-0.622,0.784-1.145,1.479-1.527c0.691-0.382,1.454-0.569,2.291-0.569c0.81,0,1.486,0.203,1.945,0.605
			c0.502,0.411,0.743,0.956,0.768,1.642v5.382h-0.629v-5.351c-0.023-0.49-0.215-0.884-0.572-1.186
			c-0.354-0.343-0.874-0.525-1.512-0.546c-0.507,0-0.958,0.056-1.396,0.205c-0.477,0.152-0.865,0.346-1.213,0.585
			c-0.305,0.239-0.596,0.561-0.795,0.92c-0.195,0.359-0.271,0.742-0.271,1.146v4.227h-0.667V32.501L136.56,32.501z"/>
		<path d="M153.111,38.84c0.049,0.053,0.139,0.15,0.192,0.208c0.099,0.096,0.15,0.152,0.213,0.203
			c-0.394,0.291-0.819,0.496-1.322,0.656c-0.459,0.122-0.979,0.221-1.525,0.221c-0.616,0-1.196-0.121-1.745-0.323
			c-0.548-0.202-0.999-0.462-1.393-0.814c-0.391-0.354-0.724-0.756-0.951-1.25c-0.225-0.455-0.362-0.976-0.362-1.528
			c0-0.544,0.138-1.021,0.362-1.52c0.226-0.461,0.557-0.865,0.951-1.219c0.394-0.354,0.845-0.609,1.393-0.854
			c0.548-0.202,1.131-0.285,1.745-0.285c0.555,0,1.083,0.061,1.583,0.22c0.46,0.166,0.879,0.368,1.265,0.618
			c-0.065,0.094-0.117,0.149-0.213,0.205c-0.054,0.101-0.148,0.156-0.194,0.249c-0.346-0.264-0.722-0.441-1.125-0.548
			c-0.409-0.145-0.832-0.196-1.315-0.196c-0.502,0-1.02,0.068-1.465,0.242c-0.491,0.181-0.889,0.407-1.239,0.728
			c-0.352,0.282-0.607,0.644-0.802,1.042c-0.197,0.442-0.319,0.868-0.319,1.317c0,0.488,0.122,0.912,0.319,1.313
			c0.192,0.4,0.45,0.759,0.802,1.075c0.351,0.277,0.752,0.544,1.239,0.683c0.447,0.176,0.966,0.286,1.465,0.286
			c0.493,0,0.922-0.093,1.321-0.191C152.392,39.238,152.764,39.058,153.111,38.84z"/>
	</g>
</g>
</svg>
