<?xml version="1.0" encoding="utf-8"?>
<!-- Generator: Adobe Illustrator 20.0.0, SVG Export Plug-In . SVG Version: 6.00 Build 0)  -->
<svg version="1.1" id="Layer_1" xmlns="http://www.w3.org/2000/svg" xmlns:xlink="http://www.w3.org/1999/xlink" x="0px" y="0px"
	 viewBox="0 0 125 35" style="enable-background:new 0 0 125 35;" xml:space="preserve">
<style type="text/css">
	.st0{fill:#F7931E;stroke:#603813;stroke-width:0.666;stroke-miterlimit:10;}
	.st1{fill:#FFFFFF;}
	.st2{enable-background:new    ;}
	.st3{fill:#603813;}
	.st4{fill:#F7931E;}
</style>
<g id="Layer_1_1_">
	<path class="st0" d="M14.4,2.8c7.2,0,13.1,5.7,13.1,12.6c0,7-5.9,12.7-13.1,12.7c-7.3,0-13.1-5.7-13.1-12.7
		C1.3,8.4,7.2,2.8,14.4,2.8z"/>
	<g>
		<path class="st1" d="M20.7,13.7c-0.3-0.8-0.8-1.4-1.4-2c-0.6-0.6-1.3-1-2.1-1.3c-0.8-0.3-1.6-0.5-2.6-0.5c-0.7,0-1.3,0.1-1.9,0.3
			c-0.6,0.2-1.2,0.4-1.7,0.8c-0.5,0.3-0.9,0.7-1.3,1.1c-0.4,0.4-0.6,0.9-0.8,1.3c0-0.3,0-0.5,0-0.8c0-0.3,0-0.5,0-0.8V3.6
			C8.8,3.9,8.5,4.1,8.2,4.2v18H9v-1.6c0-0.3,0-0.6,0-0.8c0-0.3,0-0.6,0-0.8c0.4,1,1.1,1.8,2.1,2.5c1,0.7,2.2,1,3.6,1.1
			c0.9,0,1.8-0.2,2.6-0.5c0.8-0.3,1.5-0.8,2.1-1.3c0.6-0.6,1-1.2,1.4-2c0.3-0.8,0.5-1.6,0.5-2.5C21.2,15.3,21,14.5,20.7,13.7z
			 M19.8,18.3c-0.3,0.7-0.7,1.2-1.2,1.7c-0.5,0.5-1.1,0.9-1.8,1.2c-0.7,0.3-1.4,0.4-2.2,0.4s-1.5-0.1-2.2-0.4
			c-0.7-0.3-1.3-0.7-1.8-1.2c-0.5-0.5-0.9-1-1.2-1.7c-0.3-0.6-0.4-1.4-0.4-2.1c0-0.7,0.2-1.5,0.4-2.1c0.3-0.7,0.7-1.2,1.2-1.7
			c0.5-0.5,1.1-0.9,1.8-1.2c0.7-0.3,1.4-0.4,2.2-0.4c0.8,0,1.5,0.1,2.2,0.4c0.7,0.3,1.3,0.7,1.8,1.2c0.5,0.5,0.9,1.1,1.2,1.7
			c0.3,0.7,0.4,1.4,0.4,2.1C20.2,16.9,20.1,17.6,19.8,18.3z"/>
	</g>
</g>
<g id="Layer_2">
	<g class="st2">
		<path class="st3" d="M43.2,19.4c0,0.7-0.1,1.4-0.4,2.1c-0.3,0.6-0.7,1.2-1.2,1.7c-0.5,0.5-1,0.8-1.7,1.1c-0.7,0.3-1.4,0.4-2.1,0.4
			c-0.6,0-1.1-0.1-1.6-0.2c-0.5-0.1-0.9-0.3-1.3-0.6c-0.4-0.2-0.7-0.5-0.9-0.8c-0.3-0.3-0.5-0.6-0.6-0.9c0,0.2,0,0.4,0,0.6
			c0,0.2,0,0.4,0,0.6v1.2h-1V4h1.2v11.4c0,0.2-0.1,0.4-0.1,0.6c0,0.2,0,0.4,0,0.6c0.1-0.3,0.3-0.6,0.6-0.9c0.3-0.3,0.6-0.6,1-0.8
			c0.4-0.2,0.8-0.4,1.3-0.6c0.5-0.1,1-0.2,1.5-0.2c0.7,0,1.4,0.1,2.1,0.4c0.7,0.3,1.2,0.7,1.7,1.1c0.5,0.5,0.9,1,1.2,1.7
			C43,18,43.2,18.7,43.2,19.4z M42,19.4c0-0.6-0.1-1.2-0.3-1.7c-0.2-0.5-0.5-1-0.9-1.4c-0.4-0.4-0.8-0.7-1.3-0.9
			c-0.5-0.2-1.1-0.3-1.7-0.3c-0.6,0-1.2,0.1-1.7,0.3c-0.5,0.2-1,0.5-1.3,0.9c-0.4,0.4-0.7,0.8-0.9,1.4c-0.2,0.5-0.3,1.1-0.3,1.7
			c0,0.6,0.1,1.1,0.3,1.6c0.2,0.5,0.5,1,0.9,1.3c0.4,0.4,0.8,0.7,1.3,0.9c0.5,0.2,1.1,0.3,1.7,0.3c0.6,0,1.2-0.1,1.7-0.3
			c0.5-0.2,1-0.5,1.3-0.9c0.4-0.4,0.7-0.8,0.9-1.3C41.9,20.5,42,20,42,19.4z"/>
		<path class="st3" d="M47.8,24.5h-1.1V4h1.1V24.5z"/>
		<path class="st3" d="M60.8,17.9c-1.4,0.6-2.8,1.1-4.2,1.7c-1.4,0.6-2.8,1.1-4.2,1.7c0.3,0.7,0.8,1.3,1.5,1.7
			c0.7,0.4,1.4,0.7,2.3,0.7c0.6,0,1.1-0.1,1.6-0.3c0.5-0.2,0.9-0.5,1.3-0.8c0.1,0.1,0.2,0.3,0.4,0.4c0.1,0.1,0.2,0.3,0.4,0.4
			c-0.5,0.4-1,0.8-1.6,1c-0.6,0.3-1.3,0.4-2,0.4c-0.7,0-1.4-0.1-2.1-0.4c-0.6-0.3-1.2-0.6-1.7-1.1c-0.5-0.5-0.9-1-1.1-1.7
			c-0.3-0.6-0.4-1.3-0.4-2.1c0-0.7,0.1-1.4,0.4-2.1c0.3-0.7,0.7-1.2,1.1-1.7c0.5-0.5,1.1-0.9,1.7-1.1c0.6-0.3,1.4-0.4,2.1-0.4
			c0.5,0,1.1,0.1,1.6,0.3c0.5,0.2,0.9,0.5,1.4,0.8c0.4,0.3,0.8,0.7,1.1,1.2C60.4,16.8,60.6,17.3,60.8,17.9z M56.1,15.2
			c-0.5,0-1.1,0.1-1.6,0.3c-0.5,0.2-0.9,0.5-1.3,0.8c-0.4,0.3-0.7,0.7-0.9,1.2c-0.2,0.5-0.4,0.9-0.4,1.5c0,0.2,0,0.4,0,0.6
			c0,0.2,0,0.4,0.1,0.6c1.2-0.5,2.4-1,3.7-1.5c1.2-0.5,2.5-1,3.7-1.5c-0.3-0.6-0.7-1.1-1.3-1.5C57.4,15.4,56.8,15.2,56.1,15.2z"/>
		<path class="st3" d="M64.9,14.3h1v1c0,0.3,0,0.6,0,0.8c0,0.3,0,0.5,0,0.8c0.4-0.9,0.9-1.5,1.7-2.1c0.8-0.5,1.7-0.8,2.7-0.8
			c1,0,1.8,0.3,2.4,0.8c0.6,0.6,0.9,1.3,0.9,2.2v7.4h-1.1v-7.1c0-0.6-0.2-1.1-0.6-1.5c-0.4-0.4-1-0.7-1.8-0.7
			c-0.5,0-1.1,0.1-1.6,0.3c-0.5,0.2-1,0.4-1.3,0.8c-0.4,0.3-0.7,0.7-0.9,1.2c-0.2,0.4-0.3,0.9-0.3,1.5v5.6h-1.1L64.9,14.3L64.9,14.3
			z"/>
		<path class="st3" d="M77.1,19.4c0-0.7,0.1-1.4,0.4-2.1c0.3-0.7,0.7-1.2,1.1-1.7c0.5-0.5,1.1-0.9,1.7-1.1c0.6-0.3,1.4-0.4,2.1-0.4
			c0.5,0,1,0.1,1.5,0.2c0.5,0.2,0.9,0.4,1.3,0.6c0.4,0.3,0.7,0.5,1,0.8c0.3,0.3,0.5,0.6,0.6,0.9c0-0.2,0-0.4-0.1-0.6
			c0-0.2,0-0.4,0-0.6V4h1.1v20.5h-1v-1.2v-1.1c-0.1,0.3-0.3,0.6-0.6,0.9c-0.3,0.3-0.6,0.6-1,0.8c-0.4,0.2-0.8,0.5-1.3,0.6
			c-0.5,0.1-1,0.2-1.6,0.2c-0.7,0-1.4-0.1-2.1-0.4c-0.6-0.3-1.2-0.6-1.7-1.1c-0.5-0.5-0.9-1-1.1-1.7C77.2,20.9,77.1,20.2,77.1,19.4z
			 M78.2,19.4c0,0.6,0.1,1.1,0.3,1.6c0.2,0.5,0.5,1,0.9,1.3c0.4,0.4,0.8,0.7,1.3,0.9c0.5,0.2,1.1,0.3,1.7,0.3c0.6,0,1.1-0.1,1.7-0.3
			c0.5-0.2,1-0.5,1.3-0.9c0.4-0.4,0.7-0.8,0.9-1.3c0.2-0.5,0.3-1.1,0.3-1.6c0-0.6-0.1-1.2-0.3-1.7c-0.2-0.5-0.5-1-0.9-1.4
			c-0.4-0.4-0.8-0.7-1.3-0.9c-0.5-0.2-1.1-0.3-1.7-0.3c-0.6,0-1.2,0.1-1.7,0.3c-0.5,0.2-1,0.5-1.3,0.9c-0.4,0.4-0.7,0.8-0.9,1.4
			C78.3,18.3,78.2,18.8,78.2,19.4z"/>
	</g>
	<g class="st2">
		<path class="st4" d="M94.5,14.3h1v1c0,0.3,0,0.6,0,0.8c0,0.3,0,0.5,0,0.8c0.4-0.9,0.9-1.6,1.7-2.1c0.8-0.5,1.7-0.8,2.8-0.8
			c0.9,0,1.7,0.2,2.3,0.7c0.6,0.5,0.9,1.2,1,2c0.4-0.8,1-1.5,1.8-2c0.8-0.5,1.7-0.7,2.7-0.8c1,0,1.8,0.3,2.4,0.8
			c0.6,0.6,0.9,1.3,0.9,2.2v7.4h-1.1v-7.1c0-0.6-0.2-1.1-0.6-1.5c-0.4-0.4-1-0.7-1.8-0.7c-0.5,0-1.1,0.1-1.6,0.3
			c-0.5,0.2-1,0.4-1.3,0.8c-0.4,0.3-0.7,0.7-0.9,1.2c-0.2,0.4-0.4,0.9-0.4,1.5v5.7h-1.1v-7.1c-0.1-0.6-0.2-1.1-0.7-1.5
			c-0.4-0.4-1-0.7-1.7-0.7c-0.6,0-1.1,0.1-1.6,0.3c-0.5,0.2-1,0.4-1.3,0.8c-0.4,0.3-0.7,0.7-0.9,1.2c-0.2,0.5-0.3,1-0.3,1.5v5.6
			h-1.1L94.5,14.3L94.5,14.3z"/>
		<path class="st4" d="M124.4,17.9c-1.4,0.6-2.8,1.1-4.2,1.7c-1.4,0.6-2.8,1.1-4.2,1.7c0.3,0.7,0.8,1.3,1.5,1.7
			c0.7,0.4,1.4,0.7,2.3,0.7c0.6,0,1.1-0.1,1.6-0.3c0.5-0.2,0.9-0.5,1.3-0.8c0.1,0.1,0.2,0.3,0.4,0.4c0.1,0.1,0.2,0.3,0.4,0.4
			c-0.5,0.4-1,0.8-1.6,1c-0.6,0.3-1.2,0.4-2,0.4c-0.7,0-1.4-0.1-2.1-0.4c-0.7-0.3-1.2-0.6-1.7-1.1c-0.5-0.5-0.9-1-1.1-1.7
			c-0.3-0.6-0.4-1.3-0.4-2.1c0-0.7,0.1-1.4,0.4-2.1c0.3-0.7,0.7-1.2,1.1-1.7c0.5-0.5,1.1-0.9,1.7-1.1c0.6-0.3,1.3-0.4,2.1-0.4
			c0.5,0,1.1,0.1,1.6,0.3c0.5,0.2,0.9,0.5,1.3,0.8c0.4,0.3,0.8,0.7,1.1,1.2C124.1,16.8,124.3,17.3,124.4,17.9z M119.7,15.2
			c-0.6,0-1.1,0.1-1.6,0.3c-0.5,0.2-0.9,0.5-1.3,0.8c-0.4,0.3-0.6,0.7-0.9,1.2c-0.2,0.5-0.4,0.9-0.4,1.5c0,0.2,0,0.4,0,0.6
			c0,0.2,0.1,0.4,0.1,0.6c1.2-0.5,2.4-1,3.7-1.5c1.2-0.5,2.5-1,3.7-1.5c-0.3-0.6-0.7-1.1-1.3-1.5C121.1,15.4,120.4,15.2,119.7,15.2z
			"/>
	</g>
	<g class="st2">
		<path d="M109.1,26.3c0-0.1,0-0.2,0.1-0.2c0.1-0.1,0.2-0.1,0.3-0.1c0.1,0,0.2,0.1,0.3,0.1c0.1,0.1,0.1,0.1,0.1,0.2
			s-0.1,0.2-0.1,0.2c-0.1,0.1-0.2,0.1-0.3,0.1c-0.1,0-0.2,0-0.3-0.1C109.1,26.5,109.1,26.4,109.1,26.3z M109.7,32.7h-0.4V28h0.4
			V32.7z"/>
		<path d="M112.3,28h0.4v0.5c0,0.1,0,0.2,0,0.3c0,0.1,0,0.2,0,0.3c0.2-0.4,0.5-0.7,0.9-1c0.4-0.2,0.9-0.4,1.4-0.4
			c0.5,0,0.9,0.1,1.2,0.4c0.3,0.3,0.5,0.6,0.5,1v3.4h-0.4v-3.4c0-0.3-0.1-0.6-0.4-0.7c-0.2-0.2-0.6-0.3-1-0.3c-0.3,0-0.6,0-0.9,0.1
			c-0.3,0.1-0.5,0.2-0.8,0.4c-0.2,0.2-0.4,0.4-0.5,0.6c-0.1,0.2-0.2,0.5-0.2,0.7v2.7h-0.4L112.3,28L112.3,28z"/>
		<path d="M122.8,32c0,0,0.1,0.1,0.1,0.1c0.1,0.1,0.1,0.1,0.1,0.1c-0.2,0.2-0.5,0.3-0.8,0.4c-0.3,0.1-0.6,0.1-1,0.1
			c-0.4,0-0.8-0.1-1.1-0.2c-0.3-0.1-0.6-0.3-0.9-0.5c-0.2-0.2-0.5-0.5-0.6-0.8c-0.1-0.3-0.2-0.6-0.2-1c0-0.3,0.1-0.6,0.2-1
			c0.1-0.3,0.4-0.5,0.6-0.8s0.5-0.4,0.9-0.5c0.3-0.1,0.7-0.2,1.1-0.2c0.4,0,0.7,0,1,0.1c0.3,0.1,0.6,0.2,0.8,0.4
			c0,0.1-0.1,0.1-0.1,0.1c0,0.1-0.1,0.1-0.1,0.2c-0.2-0.2-0.5-0.3-0.7-0.3c-0.3-0.1-0.5-0.1-0.8-0.1c-0.3,0-0.6,0-0.9,0.2
			c-0.3,0.1-0.6,0.3-0.8,0.5c-0.2,0.2-0.4,0.4-0.5,0.7c-0.1,0.3-0.2,0.5-0.2,0.8c0,0.3,0.1,0.6,0.2,0.8c0.1,0.3,0.3,0.5,0.5,0.7
			c0.2,0.2,0.5,0.3,0.8,0.4c0.3,0.1,0.6,0.2,0.9,0.2c0.3,0,0.6-0.1,0.8-0.1C122.3,32.2,122.6,32.1,122.8,32z"/>
	</g>
</g>
</svg>
